<svg id="Layer_1" data-name="Layer 1" xmlns="http://www.w3.org/2000/svg" viewBox="0 0 500 500"><defs><style>.cls-1{fill:#b70808;}.cls-2{fill:#ffc612;}.cls-3{fill:#d82f23;}.cls-4{fill:#911c19;}.cls-5{fill:#f2a203;}.cls-6{fill:none;stroke:#000;stroke-linecap:round;stroke-linejoin:round;stroke-width:15px;}.cls-7{fill:#ea7a15;}.cls-8{fill:#ffecc7;}</style></defs><title>medal</title><polygon class="cls-1" points="302.5 7.32 250 95.23 303.8 185.31 320.17 185.31 426.47 7.32 302.5 7.32"/><circle class="cls-2" cx="250" cy="359.78" r="132.9"/><polygon class="cls-3" points="303.8 185.31 179.83 185.31 73.53 7.32 197.5 7.32 303.8 185.31"/><polygon class="cls-4" points="268 65.09 250 95.23 303.8 185.31 320.17 185.31 329.98 168.88 268 65.09"/><path class="cls-2" d="M152.55,185.31h194.9a0,0,0,0,1,0,0v7.74a34.14,34.14,0,0,1-34.14,34.14H186.69a34.14,34.14,0,0,1-34.14-34.14v-7.74a0,0,0,0,1,0,0Z"/><path class="cls-5" d="M250,226.88a133.59,133.59,0,0,0-18,1.22,132.91,132.91,0,0,1,0,263.36,132.9,132.9,0,1,0,18-264.58Z"/><path class="cls-5" d="M311.45,185.31v7.74a34.14,34.14,0,0,1-34.14,34.15h36a34.14,34.14,0,0,0,34.14-34.15v-7.74Z"/><circle class="cls-6" cx="250" cy="359.78" r="132.9"/><circle class="cls-7" cx="250" cy="359.78" r="98.09"/><circle class="cls-6" cx="250" cy="359.78" r="98.09"/><path class="cls-8" d="M257.06,304.4l12.27,24.88a7.87,7.87,0,0,0,5.93,4.3l27.45,4A7.87,7.87,0,0,1,307.07,351l-19.86,19.37a7.87,7.87,0,0,0-2.27,7l4.69,27.34a7.87,7.87,0,0,1-11.42,8.3l-24.55-12.91a7.83,7.83,0,0,0-7.32,0L221.79,413a7.87,7.87,0,0,1-11.42-8.3l4.69-27.34a7.87,7.87,0,0,0-2.27-7L192.93,351a7.87,7.87,0,0,1,4.36-13.42l27.45-4a7.87,7.87,0,0,0,5.93-4.3l12.27-24.88A7.88,7.88,0,0,1,257.06,304.4Z"/><path class="cls-6" d="M257.06,304.4l12.27,24.88a7.87,7.87,0,0,0,5.93,4.3l27.45,4A7.87,7.87,0,0,1,307.07,351l-19.86,19.37a7.87,7.87,0,0,0-2.27,7l4.69,27.34a7.87,7.87,0,0,1-11.42,8.3l-24.55-12.91a7.83,7.83,0,0,0-7.32,0L221.79,413a7.87,7.87,0,0,1-11.42-8.3l4.69-27.34a7.87,7.87,0,0,0-2.27-7L192.93,351a7.87,7.87,0,0,1,4.36-13.42l27.45-4a7.87,7.87,0,0,0,5.93-4.3l12.27-24.88A7.88,7.88,0,0,1,257.06,304.4Z"/><line class="cls-6" x1="131.78" y1="185.31" x2="368.22" y2="185.31"/><path class="cls-6" d="M152.55,185.31h194.9a0,0,0,0,1,0,0v7.74a34.14,34.14,0,0,1-34.14,34.14H186.69a34.14,34.14,0,0,1-34.14-34.14v-7.74a0,0,0,0,1,0,0Z"/><polygon class="cls-6" points="303.8 185.31 179.83 185.31 73.53 7.32 197.5 7.32 303.8 185.31"/><polygon class="cls-6" points="302.5 7.32 250 95.23 303.8 185.31 320.17 185.31 426.47 7.32 302.5 7.32"/></svg>